<?xml version="1.0" encoding="UTF-8"?>
<svg id="Layer_1" data-name="Layer 1" xmlns="http://www.w3.org/2000/svg" viewBox="0 0 288.59 137.39">
  <defs>
    <style>
      .cls-1 {
        fill: #dcae97;
      }

      .cls-2 {
        font-family: BeancoDemo-Italic, 'Beanco Demo';
        font-size: 115.73px;
        font-style: italic;
      }
    </style>
  </defs>
  <g>
    <path class="cls-1" d="M21.62,32.41s-11.08-13.75,1.53-15.47c11.73-1.6,63.17,36.67,87.79,35.05,3.67-.24,7.08-2.28,8.7-5.58,1.68-3.41,1.31-7.89-9.6-10.18,0,0,12.6,3.63,4.39,11.27C106.21,55.13,31.74,14.61,31.74,14.61c0,0-14.38-7.06-17.38,3.29-2.1,7.26,7.26,14.51,7.26,14.51Z"/>
    <path class="cls-1" d="M53.01,17.93s18.77,16.13,40.27,17.9c0,0-24.36-8.29-40.27-17.9Z"/>
    <path class="cls-1" d="M53.84,13.62s11.93-18.39,28.34-12.43c18.1,6.58,14.75,22.2,13.59,28.17,0,0-.33-21.71-15.24-25.35-14.91-3.65-26.68,9.61-26.68,9.61Z"/>
  </g>
  <text class="cls-2" transform="translate(0 107.3)"><tspan x="0" y="0">Lamora</tspan></text>
</svg>